<?xml version="1.0" encoding="UTF-8"?>
<svg xmlns="http://www.w3.org/2000/svg" width="278" height="82" viewBox="0 0 278 82" fill="none">
  <path d="M33.0892 32.8812L7.59228 21.1924C5.88237 20.41 5.88237 18.4493 7.59228 17.6669L33.0892 5.9748C33.8814 5.61169 34.8585 5.61169 35.6507 5.9748L61.1476 17.6636C62.8575 18.446 62.8575 20.4067 61.1476 21.1891L35.6507 32.8779C34.8585 33.241 33.8814 33.241 33.0892 32.8779V32.8812Z" fill="url(#paint0_linear_804_3)"></path>
  <path d="M61.1443 25.3417L7.77384 49.9738C6.07052 50.7594 6.07383 52.7136 7.78044 53.4959L33.0925 65.0989C33.8847 65.462 34.8618 65.462 35.654 65.0989L63.7158 52.2349C64.508 51.8718 64.9966 51.1984 64.9966 50.4722V27.1045C64.9966 25.5365 62.8542 24.5561 61.1443 25.345V25.3417Z" fill="url(#paint1_linear_804_3)"></path>
  <path d="M163.452 72.0376H159.534V73.1401H162.323C162.26 73.3811 162.165 73.6089 162.033 73.8201C161.782 74.2196 161.445 74.5332 161.019 74.7642C160.593 74.9953 160.121 75.1108 159.606 75.1108C159.091 75.1108 158.583 74.9821 158.157 74.7246C157.731 74.4671 157.391 74.1139 157.144 73.665C156.893 73.2161 156.768 72.7044 156.768 72.1333C156.768 71.5623 156.893 71.044 157.144 70.5984C157.395 70.1527 157.731 69.7995 158.157 69.542C158.583 69.2846 159.065 69.1558 159.606 69.1558C160.092 69.1558 160.537 69.245 160.95 69.4199C161.359 69.5949 161.745 69.9316 162.105 70.4234L163.254 70.0834C162.888 69.4595 162.412 68.9611 161.835 68.5881C161.257 68.2183 160.514 68.0302 159.606 68.0302C159.029 68.0302 158.494 68.1325 158.005 68.3339C157.517 68.5385 157.091 68.8224 156.728 69.1888C156.365 69.5553 156.081 69.991 155.876 70.4894C155.672 70.9912 155.573 71.5358 155.573 72.13C155.573 72.9124 155.741 73.6122 156.078 74.2361C156.414 74.8566 156.886 75.3452 157.49 75.7017C158.095 76.0582 158.801 76.2365 159.606 76.2365C160.171 76.2365 160.686 76.144 161.161 75.9559C161.633 75.7677 162.049 75.5069 162.406 75.1702C162.762 74.8335 163.036 74.4473 163.231 74.0083C163.426 73.5693 163.525 73.1005 163.525 72.6021C163.525 72.5096 163.518 72.4106 163.508 72.3083C163.495 72.2059 163.478 72.1168 163.455 72.0376H163.452Z" fill="#7647DD"></path>
  <path d="M165.641 74.5034V68.1358H164.492V74.9128C164.492 75.1867 164.538 75.4178 164.627 75.606C164.716 75.7941 164.842 75.9361 164.997 76.0351C165.152 76.1341 165.334 76.1803 165.535 76.1803C165.667 76.1803 165.792 76.1704 165.911 76.1506C166.03 76.1308 166.139 76.1011 166.238 76.0615V75.124C166.083 75.124 165.944 75.0811 165.822 74.9953C165.7 74.9095 165.641 74.7444 165.641 74.5034Z" fill="#7647DD"></path>
  <path d="M171.312 70.6545C170.873 70.4036 170.361 70.2782 169.777 70.2782C169.192 70.2782 168.687 70.4036 168.245 70.6545C167.803 70.9054 167.463 71.252 167.218 71.6976C166.978 72.1432 166.855 72.6681 166.855 73.2689C166.855 73.8697 166.978 74.3846 167.218 74.8302C167.459 75.2759 167.803 75.6225 168.245 75.8668C168.687 76.1143 169.196 76.2365 169.777 76.2365C170.358 76.2365 170.876 76.1143 171.312 75.8668C171.751 75.6192 172.091 75.2759 172.338 74.8302C172.586 74.3846 172.708 73.8664 172.708 73.2689C172.708 72.6714 172.586 72.1432 172.338 71.6976C172.091 71.252 171.751 70.9054 171.312 70.6545ZM171.034 74.6025C170.718 74.9425 170.298 75.1108 169.773 75.1108C169.249 75.1108 168.843 74.9425 168.526 74.6025C168.209 74.2625 168.05 73.8135 168.05 73.259C168.05 72.7044 168.209 72.2555 168.526 71.9155C168.843 71.5755 169.258 71.4038 169.773 71.4038C170.288 71.4038 170.718 71.5755 171.034 71.9188C171.351 72.2621 171.51 72.711 171.51 73.2689C171.51 73.8267 171.351 74.2592 171.034 74.5992V74.6025Z" fill="#7647DD"></path>
  <path d="M178.066 70.6479C177.669 70.4003 177.207 70.2782 176.676 70.2782C176.144 70.2782 175.712 70.4003 175.326 70.6479C175.187 70.737 175.065 70.8426 174.949 70.9549V68.1325H173.778V76.1176H174.669L174.837 75.431C174.982 75.5961 175.144 75.738 175.326 75.8569C175.709 76.1077 176.158 76.2332 176.676 76.2332C177.194 76.2332 177.669 76.1077 178.066 75.8569C178.462 75.606 178.769 75.2561 178.987 74.8071C179.204 74.3582 179.313 73.8366 179.313 73.2425C179.313 72.6483 179.204 72.1267 178.987 71.6811C178.769 71.2355 178.462 70.8889 178.066 70.6446V70.6479ZM177.673 74.685C177.376 75.0481 176.986 75.2297 176.501 75.2297C176.016 75.2297 175.636 75.0514 175.339 74.6916C175.042 74.3318 174.893 73.8564 174.893 73.2623C174.893 72.6681 175.042 72.1927 175.339 71.8329C175.636 71.4731 176.022 71.2949 176.501 71.2949C176.98 71.2949 177.376 71.4764 177.673 71.8329C177.97 72.1927 178.118 72.6648 178.118 73.2524C178.118 73.8399 177.97 74.3252 177.673 74.6883V74.685Z" fill="#7647DD"></path>
  <path d="M183.74 70.5489C183.42 70.3706 183.014 70.2782 182.522 70.2782C182.195 70.2782 181.858 70.3178 181.512 70.397C181.168 70.4762 180.835 70.5918 180.515 70.7502L180.868 71.6547C181.149 71.5292 181.423 71.4401 181.683 71.3906C181.944 71.3411 182.185 71.3147 182.406 71.3147C182.819 71.3147 183.109 71.417 183.275 71.6184C183.44 71.823 183.522 72.0442 183.522 72.2885V72.777C183.522 72.777 183.496 72.7506 183.482 72.7407C183.149 72.4931 182.71 72.371 182.162 72.371C181.723 72.371 181.343 72.4568 181.023 72.6285C180.703 72.8001 180.455 73.0345 180.284 73.325C180.112 73.6188 180.026 73.9522 180.026 74.3285C180.026 74.7345 180.109 75.0844 180.277 75.3782C180.446 75.672 180.69 75.8965 181.01 76.0516C181.33 76.2068 181.713 76.286 182.159 76.286C182.644 76.286 183.067 76.1704 183.426 75.9394C183.539 75.8668 183.634 75.7809 183.727 75.6852L183.849 76.1209H184.694V72.2852C184.694 71.9089 184.615 71.5722 184.46 71.2718C184.304 70.9714 184.063 70.7304 183.743 70.5489H183.74ZM183.202 74.9986C182.991 75.1603 182.713 75.2396 182.37 75.2396C182.027 75.2396 181.749 75.1603 181.538 74.9986C181.327 74.8401 181.221 74.6124 181.221 74.3252C181.221 74.038 181.327 73.8003 181.538 73.6452C181.749 73.49 182.027 73.4108 182.37 73.4108C182.713 73.4108 182.991 73.49 183.202 73.6452C183.413 73.8003 183.519 74.0281 183.519 74.3252C183.519 74.6223 183.413 74.8401 183.202 74.9986Z" fill="#7647DD"></path>
  <path d="M187.18 74.5034V68.1358H186.031V74.9128C186.031 75.1867 186.077 75.4178 186.166 75.606C186.255 75.7941 186.381 75.9361 186.536 76.0351C186.691 76.1341 186.873 76.1803 187.074 76.1803C187.206 76.1803 187.331 76.1704 187.45 76.1506C187.569 76.1308 187.678 76.1011 187.777 76.0615V75.124C187.622 75.124 187.483 75.0811 187.361 74.9953C187.239 74.9095 187.18 74.7444 187.18 74.5034Z" fill="#7647DD"></path>
  <path d="M197.631 69.2351V68.1325H191.342V69.2351H193.841V76.1209H195.013V69.2351H197.631Z" fill="#7647DD"></path>
  <path d="M200.727 70.5489C200.407 70.3706 200.001 70.2782 199.509 70.2782C199.182 70.2782 198.845 70.3178 198.499 70.397C198.155 70.4762 197.822 70.5918 197.502 70.7502L197.855 71.6547C198.136 71.5292 198.41 71.4401 198.67 71.3906C198.931 71.3411 199.172 71.3147 199.393 71.3147C199.806 71.3147 200.096 71.417 200.261 71.6184C200.426 71.823 200.509 72.0442 200.509 72.2885V72.777C200.509 72.777 200.483 72.7506 200.469 72.7407C200.136 72.4931 199.697 72.371 199.149 72.371C198.71 72.371 198.33 72.4568 198.01 72.6285C197.69 72.8001 197.442 73.0345 197.271 73.325C197.099 73.6188 197.013 73.9522 197.013 74.3285C197.013 74.7345 197.096 75.0844 197.264 75.3782C197.432 75.672 197.677 75.8965 197.997 76.0516C198.317 76.2068 198.7 76.286 199.146 76.286C199.631 76.286 200.053 76.1704 200.413 75.9394C200.525 75.8668 200.621 75.7809 200.714 75.6852L200.836 76.1209H201.681V72.2852C201.681 71.9089 201.602 71.5722 201.446 71.2718C201.291 70.9714 201.05 70.7304 200.73 70.5489H200.727ZM200.185 74.9986C199.974 75.1603 199.697 75.2396 199.354 75.2396C199.01 75.2396 198.733 75.1603 198.522 74.9986C198.311 74.8401 198.205 74.6124 198.205 74.3252C198.205 74.038 198.311 73.8003 198.522 73.6452C198.733 73.49 199.01 73.4108 199.354 73.4108C199.697 73.4108 199.974 73.49 200.185 73.6452C200.397 73.8003 200.502 74.0281 200.502 74.3252C200.502 74.6223 200.397 74.8401 200.185 74.9986Z" fill="#7647DD"></path>
  <path d="M204.167 74.5034V68.1358H203.018V74.9128C203.018 75.1867 203.064 75.4178 203.153 75.606C203.242 75.7941 203.368 75.9361 203.523 76.0351C203.678 76.1341 203.86 76.1803 204.061 76.1803C204.193 76.1803 204.318 76.1704 204.437 76.1506C204.556 76.1308 204.665 76.1011 204.764 76.0615V75.124C204.609 75.124 204.47 75.0811 204.348 74.9953C204.226 74.9095 204.167 74.7444 204.167 74.5034Z" fill="#7647DD"></path>
  <path d="M209.653 70.6545C209.23 70.4036 208.738 70.2782 208.174 70.2782C207.609 70.2782 207.131 70.4036 206.708 70.6545C206.286 70.9054 205.959 71.252 205.725 71.6976C205.49 72.1432 205.371 72.6681 205.371 73.2689C205.371 73.8697 205.49 74.3846 205.725 74.8302C205.959 75.2759 206.289 75.6225 206.708 75.8668C207.127 76.111 207.619 76.2365 208.174 76.2365C208.808 76.2365 209.333 76.1143 209.752 75.8668C210.171 75.6192 210.511 75.2495 210.778 74.7576L209.9 74.2064C209.712 74.4968 209.494 74.7378 209.243 74.9326C208.993 75.1273 208.636 75.2264 208.177 75.2264C207.675 75.2264 207.286 75.0712 207.005 74.7642C206.738 74.4737 206.603 74.0809 206.589 73.5957H210.97C210.976 73.5495 210.983 73.4966 210.986 73.4372C210.99 73.3778 210.993 73.3217 210.993 73.2656C210.993 72.6648 210.877 72.1399 210.64 71.6943C210.405 71.2487 210.075 70.9021 209.656 70.6512L209.653 70.6545ZM207.015 71.6943C207.306 71.384 207.692 71.2322 208.177 71.2322C208.725 71.2322 209.131 71.4236 209.395 71.8065C209.55 72.031 209.656 72.2951 209.719 72.5922H206.603C206.652 72.2357 206.787 71.9353 207.012 71.6943H207.015Z" fill="#7647DD"></path>
  <path d="M216.78 71.0374C216.671 70.8063 216.499 70.6215 216.265 70.4861C216.03 70.3508 215.71 70.2815 215.304 70.2815C215 70.2815 214.703 70.3277 214.413 70.4168C214.122 70.5059 213.848 70.638 213.591 70.8096C213.422 70.9219 213.267 71.0539 213.119 71.1991L212.924 70.4003H212.033V76.1242H213.205V72.2852C213.287 72.1828 213.38 72.0871 213.485 71.9947C213.69 71.823 213.918 71.6844 214.178 71.5854C214.436 71.483 214.69 71.4335 214.941 71.4335C215.192 71.4335 215.41 71.5028 215.591 71.6448C215.776 71.7867 215.865 72.0607 215.865 72.4667V76.1242H217.037V72.711C217.037 72.4073 217.021 72.1102 216.991 71.8197C216.961 71.5292 216.889 71.2718 216.78 71.0407V71.0374Z" fill="#7647DD"></path>
  <path d="M219.909 69.1063H218.958L218.734 70.397H217.856V71.4764H218.734V74.4209C218.734 75.0382 218.879 75.4937 219.173 75.7875C219.467 76.0813 219.863 76.2266 220.364 76.2266C220.53 76.2266 220.671 76.2134 220.794 76.1902C220.916 76.1671 221.025 76.1407 221.127 76.1077V75.0184C221.048 75.0415 220.959 75.0613 220.856 75.0778C220.754 75.0943 220.638 75.1009 220.503 75.1009C220.331 75.1009 220.19 75.0448 220.074 74.9359C219.962 74.8269 219.902 74.6619 219.902 74.444V71.4764H221.12V70.397H219.902V69.1063H219.909Z" fill="#7647DD"></path>
  <path d="M229.868 72.0904C229.498 71.8692 228.983 71.6745 228.326 71.5094C227.676 71.3543 227.24 71.1694 227.019 70.9582C226.795 70.7469 226.686 70.496 226.686 70.2088C226.686 69.8721 226.805 69.6147 227.042 69.4364C227.28 69.2582 227.627 69.1657 228.079 69.1657C228.376 69.1657 228.657 69.2318 228.917 69.3605C229.178 69.4892 229.432 69.7038 229.673 70.0009L230.657 69.3671C230.376 68.9512 230.03 68.6277 229.624 68.3867C229.218 68.149 228.703 68.0302 228.076 68.0302C227.551 68.0302 227.099 68.1226 226.716 68.3042C226.333 68.489 226.039 68.7432 225.838 69.0667C225.633 69.3902 225.534 69.7731 225.534 70.2088C225.534 70.5621 225.6 70.8889 225.732 71.1892C225.864 71.4896 226.102 71.757 226.442 71.9881C226.782 72.2192 227.257 72.4139 227.868 72.5691C228.353 72.6846 228.726 72.8166 228.993 72.9553C229.257 73.0972 229.446 73.2491 229.551 73.4141C229.657 73.5792 229.71 73.7706 229.71 73.9885C229.71 74.3549 229.587 74.6454 229.34 74.8566C229.092 75.0679 228.732 75.1735 228.254 75.1735C227.775 75.1735 227.349 75.0646 227.023 74.8467C226.696 74.6289 226.392 74.2724 226.118 73.7805L225.144 74.3318C225.362 74.8236 225.633 75.2132 225.953 75.497C226.273 75.7809 226.626 75.9889 227.016 76.1143C227.402 76.2398 227.805 76.3025 228.218 76.3025C228.756 76.3025 229.228 76.2002 229.624 75.9922C230.023 75.7842 230.33 75.5102 230.551 75.1669C230.769 74.8236 230.878 74.4374 230.878 74.005C230.878 73.5726 230.802 73.2062 230.65 72.8959C230.499 72.5856 230.234 72.3215 229.865 72.097L229.868 72.0904Z" fill="#7647DD"></path>
  <path d="M236.041 70.6545C235.602 70.4036 235.09 70.2782 234.506 70.2782C233.922 70.2782 233.417 70.4036 232.974 70.6545C232.532 70.9054 232.192 71.252 231.948 71.6976C231.707 72.1432 231.585 72.6681 231.585 73.2689C231.585 73.8697 231.707 74.3846 231.948 74.8302C232.189 75.2759 232.532 75.6225 232.974 75.8668C233.417 76.1143 233.925 76.2365 234.506 76.2365C235.087 76.2365 235.605 76.1143 236.041 75.8668C236.48 75.6192 236.82 75.2759 237.068 74.8302C237.315 74.3846 237.437 73.8664 237.437 73.2689C237.437 72.6714 237.315 72.1432 237.068 71.6976C236.82 71.252 236.48 70.9054 236.041 70.6545ZM235.764 74.6025C235.447 74.9425 235.028 75.1108 234.503 75.1108C233.978 75.1108 233.572 74.9425 233.255 74.6025C232.938 74.2625 232.78 73.8135 232.78 73.259C232.78 72.7044 232.938 72.2555 233.255 71.9155C233.572 71.5755 233.988 71.4038 234.503 71.4038C235.018 71.4038 235.447 71.5755 235.764 71.9188C236.081 72.2621 236.239 72.711 236.239 73.2689C236.239 73.8267 236.081 74.2592 235.764 74.5992V74.6025Z" fill="#7647DD"></path>
  <path d="M239.639 74.5034V68.1358H238.49V74.9128C238.49 75.1867 238.536 75.4178 238.626 75.606C238.715 75.7941 238.84 75.9361 238.995 76.0351C239.15 76.1341 239.332 76.1803 239.533 76.1803C239.665 76.1803 239.791 76.1704 239.91 76.1506C240.029 76.1308 240.137 76.1011 240.236 76.0615V75.124C240.081 75.124 239.943 75.0811 239.821 74.9953C239.698 74.9095 239.639 74.7444 239.639 74.5034Z" fill="#7647DD"></path>
  <path d="M245.003 74.2394C244.924 74.3351 244.835 74.4308 244.729 74.52C244.521 74.6949 244.29 74.8335 244.036 74.9359C243.782 75.0382 243.524 75.0877 243.267 75.0877C243.009 75.0877 242.798 75.0184 242.616 74.8765C242.432 74.7345 242.343 74.4605 242.343 74.0545V70.397H241.171V73.8102C241.171 74.1139 241.187 74.411 241.223 74.7015C241.26 74.992 241.336 75.2495 241.451 75.4805C241.57 75.7116 241.752 75.8965 242.002 76.0318C242.253 76.1671 242.593 76.2365 243.023 76.2365C243.313 76.2365 243.594 76.1903 243.868 76.1011C244.142 76.012 244.402 75.88 244.653 75.7017C244.812 75.5928 244.954 75.464 245.092 75.3254L245.287 76.1176H246.178V70.3937H245.006V74.2361L245.003 74.2394Z" fill="#7647DD"></path>
  <path d="M249.133 69.1063H248.182L247.957 70.397H247.079V71.4764H247.957V74.4209C247.957 75.0382 248.103 75.4937 248.397 75.7875C248.69 76.0813 249.086 76.2266 249.588 76.2266C249.753 76.2266 249.895 76.2134 250.017 76.1902C250.139 76.1671 250.248 76.1407 250.351 76.1077V75.0184C250.271 75.0415 250.182 75.0613 250.08 75.0778C249.978 75.0943 249.862 75.1009 249.727 75.1009C249.555 75.1009 249.413 75.0448 249.298 74.9359C249.185 74.8269 249.126 74.6619 249.126 74.444V71.4764H250.344V70.397H249.126V69.1063H249.133Z" fill="#7647DD"></path>
  <path d="M252.582 70.397H251.41V76.1209H252.582V70.397Z" fill="#7647DD"></path>
  <path d="M251.998 67.8651C251.764 67.8651 251.579 67.9378 251.44 68.083C251.305 68.2282 251.235 68.4131 251.235 68.6409C251.235 68.8686 251.305 69.0403 251.44 69.1855C251.575 69.3308 251.764 69.4034 251.998 69.4034C252.232 69.4034 252.407 69.3308 252.549 69.1855C252.691 69.0403 252.76 68.8587 252.76 68.6409C252.76 68.423 252.691 68.2282 252.549 68.083C252.407 67.9378 252.226 67.8651 251.998 67.8651Z" fill="#7647DD"></path>
  <path d="M258.101 70.6545C257.662 70.4036 257.151 70.2782 256.566 70.2782C255.982 70.2782 255.477 70.4036 255.035 70.6545C254.592 70.9054 254.253 71.252 254.008 71.6976C253.767 72.1432 253.645 72.6681 253.645 73.2689C253.645 73.8697 253.767 74.3846 254.008 74.8302C254.249 75.2759 254.592 75.6225 255.035 75.8668C255.477 76.1143 255.986 76.2365 256.566 76.2365C257.147 76.2365 257.666 76.1143 258.101 75.8668C258.541 75.6192 258.88 75.2759 259.128 74.8302C259.376 74.3846 259.498 73.8664 259.498 73.2689C259.498 72.6714 259.376 72.1432 259.128 71.6976C258.88 71.252 258.541 70.9054 258.101 70.6545ZM257.827 74.6025C257.511 74.9425 257.091 75.1108 256.566 75.1108C256.042 75.1108 255.636 74.9425 255.319 74.6025C255.002 74.2625 254.843 73.8135 254.843 73.259C254.843 72.7044 255.002 72.2555 255.319 71.9155C255.636 71.5755 256.052 71.4038 256.566 71.4038C257.081 71.4038 257.511 71.5755 257.827 71.9188C258.144 72.2621 258.303 72.711 258.303 73.2689C258.303 73.8267 258.144 74.2592 257.827 74.5992V74.6025Z" fill="#7647DD"></path>
  <path d="M265.321 71.0374C265.212 70.8063 265.04 70.6215 264.806 70.4861C264.571 70.3508 264.251 70.2815 263.845 70.2815C263.541 70.2815 263.244 70.3277 262.954 70.4168C262.663 70.5059 262.389 70.638 262.132 70.8096C261.964 70.9219 261.808 71.0539 261.66 71.1991L261.465 70.4003H260.574V76.1242H261.746V72.2852C261.828 72.1828 261.921 72.0871 262.026 71.9947C262.231 71.823 262.459 71.6844 262.72 71.5854C262.977 71.483 263.231 71.4335 263.482 71.4335C263.733 71.4335 263.951 71.5028 264.132 71.6448C264.317 71.7867 264.406 72.0607 264.406 72.4667V76.1242H265.578V72.711C265.578 72.4073 265.562 72.1102 265.532 71.8197C265.502 71.5292 265.43 71.2718 265.321 71.0407V71.0374Z" fill="#7647DD"></path>
  <path d="M268.856 72.7539C268.45 72.6615 268.169 72.5526 268.018 72.4304C267.866 72.3083 267.79 72.1498 267.79 71.9551C267.79 71.7603 267.872 71.6085 268.037 71.4962C268.202 71.3873 268.381 71.3312 268.576 71.3312C268.896 71.3312 269.163 71.4005 269.374 71.5359C269.586 71.6745 269.744 71.8098 269.856 71.9518L270.761 71.285C270.566 71.011 270.295 70.7733 269.952 70.5753C269.609 70.3772 269.193 70.2749 268.708 70.2749C268.302 70.2749 267.948 70.3541 267.651 70.5092C267.354 70.6644 267.126 70.8724 266.971 71.1298C266.816 71.3873 266.737 71.6745 266.737 71.9848C266.737 72.5096 266.889 72.8926 267.196 73.1335C267.499 73.3745 267.935 73.5726 268.496 73.7211C268.8 73.8003 269.034 73.8796 269.199 73.9621C269.364 74.0446 269.48 74.1337 269.546 74.2262C269.612 74.3186 269.645 74.4308 269.645 74.553C269.645 74.7411 269.576 74.8996 269.44 75.0283C269.305 75.157 269.11 75.2231 268.859 75.2231C268.546 75.2231 268.292 75.157 268.097 75.0283C267.902 74.8996 267.694 74.6916 267.476 74.4011L266.585 74.9887C266.836 75.4409 267.153 75.7611 267.542 75.9493C267.929 76.1374 268.321 76.2299 268.721 76.2299C269.081 76.2299 269.414 76.1572 269.724 76.012C270.035 75.8668 270.282 75.6588 270.474 75.3914C270.665 75.124 270.761 74.8005 270.761 74.4242C270.761 73.9951 270.616 73.6485 270.328 73.3877C270.038 73.1269 269.549 72.9124 268.863 72.7473L268.856 72.7539Z" fill="#7647DD"></path>
  <path d="M76.6425 60.9694H84.1556C84.7629 60.9694 85.2548 60.4775 85.2548 59.8701V42.1009C85.2548 41.4935 85.7466 41.0016 86.354 41.0016H104.331C104.939 41.0016 105.43 40.5098 105.43 39.9024V32.8911C105.43 32.2837 104.939 31.7919 104.331 31.7919H86.354C85.7466 31.7919 85.2548 31.3 85.2548 30.6926V19.4131C85.2548 18.8058 85.7466 18.3139 86.354 18.3139H109.022C109.629 18.3139 110.121 17.8221 110.121 17.2147V10.2034C110.121 9.59599 109.629 9.10414 109.022 9.10414H76.6425C76.0351 9.10414 75.5433 9.59599 75.5433 10.2034V59.8701C75.5433 60.4775 76.0351 60.9694 76.6425 60.9694Z" fill="#06265F"></path>
  <path d="M142.471 21.8691C139.289 20.0832 135.605 19.1887 131.419 19.1887C127.234 19.1887 123.55 20.0832 120.367 21.8691C117.185 23.6549 114.716 26.1538 112.957 29.3623C111.197 32.5742 110.319 36.3274 110.319 40.622C110.319 44.9166 111.197 48.5048 112.957 51.7167C114.716 54.9252 117.185 57.4241 120.367 59.2099C123.55 60.9958 127.234 61.8903 131.419 61.8903C135.605 61.8903 139.289 60.9958 142.471 59.2099C145.653 57.4241 148.122 54.9252 149.882 51.7167C151.641 48.5081 152.519 44.811 152.519 40.622C152.519 36.4331 151.641 32.5709 149.882 29.3623C148.122 26.1538 145.653 23.6549 142.471 21.8691ZM139.54 49.2046C137.473 51.4097 134.766 52.5122 131.419 52.5122C128.072 52.5122 125.362 51.4097 123.299 49.2046C121.232 46.9995 120.202 44.1112 120.202 40.5395C120.202 36.9678 121.236 34.0101 123.299 31.8315C125.362 29.6561 128.072 28.5668 131.419 28.5668C134.766 28.5668 137.473 29.6693 139.54 31.8744C141.603 34.0795 142.636 36.9678 142.636 40.5395C142.636 44.1112 141.603 46.9995 139.54 49.2046Z" fill="#06265F"></path>
  <path d="M176.085 28.5668C178.26 28.5668 180.158 29.1247 181.779 30.2404C183.142 31.1812 184.232 32.4818 185.041 34.1356C185.298 34.6604 185.922 34.8948 186.46 34.6604L193.494 31.6004C194.069 31.3495 194.313 30.6761 194.046 30.1084C192.577 26.9691 190.372 24.4174 187.427 22.4534C184.162 20.278 180.436 19.1887 176.25 19.1887C172.064 19.1887 168.423 20.0964 165.324 21.9087C162.227 23.7242 159.824 26.2363 158.124 29.4449C156.421 32.6567 155.569 36.3505 155.569 40.5395C155.569 44.7285 156.421 48.4091 158.124 51.5912C159.828 54.7734 162.227 57.2854 165.324 59.1274C168.42 60.9694 172.064 61.8903 176.25 61.8903C180.436 61.8903 184.077 60.7878 187.345 58.5827C190.283 56.5988 192.511 54.0373 194.026 50.898C194.3 50.327 194.052 49.6403 193.471 49.3928L186.457 46.4054C185.922 46.1776 185.298 46.4087 185.044 46.9335C184.235 48.5939 183.146 49.8945 181.779 50.8386C180.158 51.9543 178.264 52.5122 176.085 52.5122C173.071 52.5122 170.546 51.4526 168.509 49.3301C166.472 47.2108 165.452 44.2795 165.452 40.5395C165.452 36.7995 166.469 33.7989 168.509 31.706C170.546 29.6132 173.071 28.5668 176.085 28.5668Z" fill="#06265F"></path>
  <path d="M224.986 46.5803C224.986 46.851 224.89 47.1184 224.705 47.3197C224.227 47.8446 223.692 48.3464 223.101 48.8283C221.734 49.944 220.256 50.8089 218.664 51.4229C217.073 52.0369 215.469 52.3439 213.852 52.3439C212.234 52.3439 210.825 51.8817 209.623 50.9607C208.421 50.0398 207.824 48.2407 207.824 45.5603V21.2089C207.824 20.6015 207.332 20.1096 206.725 20.1096H199.212C198.604 20.1096 198.112 20.6015 198.112 21.2089V44.6393C198.112 46.8741 198.264 49.0231 198.571 51.0862C198.878 53.1526 199.479 54.9946 200.37 56.612C201.262 58.2295 202.615 59.5136 204.431 60.4643C206.243 61.4117 208.686 61.887 211.755 61.887C213.819 61.887 215.829 61.5371 217.783 60.8406C219.737 60.1441 221.606 59.1538 223.391 57.8697C223.844 57.5462 224.279 57.2095 224.705 56.8596C225.323 56.3513 226.257 56.6451 226.461 57.4208L227.191 60.154C227.32 60.636 227.755 60.9694 228.254 60.9694H233.595C234.202 60.9694 234.694 60.4775 234.694 59.8701V21.2122C234.694 20.6048 234.202 20.113 233.595 20.113H226.082C225.474 20.113 224.983 20.6048 224.983 21.2122V46.5836L224.986 46.5803Z" fill="#06265F"></path>
  <path d="M256.943 36.4364C253.985 35.7663 251.975 35.0434 250.915 34.261C249.856 33.4787 249.324 32.5016 249.324 31.3297C249.324 30.1579 249.856 29.1544 250.915 28.4843C251.975 27.8142 253.176 27.4808 254.517 27.4808C256.748 27.4808 258.659 27.9396 260.25 28.8606C261.498 29.5835 262.548 30.3493 263.4 31.1548C263.796 31.5311 264.403 31.5608 264.832 31.2208L269.965 27.1639C270.46 26.7744 270.526 26.0481 270.114 25.5728C268.698 23.9421 266.902 22.5128 264.727 21.2815C262.158 19.8324 259.062 19.1062 255.434 19.1062C252.42 19.1062 249.796 19.6805 247.565 20.8227C245.333 21.9681 243.63 23.5031 242.458 25.4276C241.286 27.352 240.699 29.4614 240.699 31.749C240.699 35.3768 241.771 38.1133 243.92 39.9552C246.069 41.7972 249.209 43.2496 253.338 44.3092C255.57 44.8671 257.286 45.4118 258.488 45.9399C259.686 46.4714 260.511 47.0425 260.957 47.6565C261.402 48.2704 261.627 48.9703 261.627 49.7493C261.627 50.9211 261.181 51.8982 260.287 52.6806C259.392 53.4629 258.164 53.8524 256.603 53.8524C254.427 53.8524 252.585 53.4068 251.077 52.5122C249.77 51.7365 248.397 50.5415 246.964 48.924C246.584 48.4982 245.937 48.4355 245.482 48.7821L240.514 52.5551C240.042 52.9149 239.943 53.585 240.283 54.0703C242.168 56.787 244.369 58.7478 246.891 59.9593C249.681 61.2995 252.585 61.9696 255.599 61.9696C258.333 61.9696 260.845 61.4381 263.135 60.3785C265.423 59.3189 267.265 57.7971 268.661 55.8165C270.054 53.8359 270.754 51.5054 270.754 48.825C270.754 45.6428 269.695 43.078 267.572 41.1238C265.449 39.1696 261.907 37.6082 256.939 36.4364H256.943Z" fill="#06265F"></path>
  <defs>
    <linearGradient id="paint0_linear_804_3" x1="13.9665" y1="28.8903" x2="52.3307" y2="11.1012" gradientUnits="userSpaceOnUse">
      <stop stop-color="#9966F0"></stop>
      <stop offset="1" stop-color="#06265F"></stop>
    </linearGradient>
    <linearGradient id="paint1_linear_804_3" x1="20.1955" y1="59.309" x2="61.0882" y2="37.7271" gradientUnits="userSpaceOnUse">
      <stop stop-color="#F2DCB3"></stop>
      <stop offset="1" stop-color="#CB8CFF"></stop>
    </linearGradient>
  </defs>
</svg>
